<svg width="133" height="50" viewBox="0 0 133 50" fill="none" xmlns="http://www.w3.org/2000/svg">
<path d="M28.5656 23.1371V13.1436H27.1406V21.7121H25.7156V20.2872H24.2812V31.715H25.7156V30.2807H28.5656V28.8557H30V23.1371H28.5656Z" fill="white"/>
<path d="M24.2814 17.4277H22.8564V20.287H24.2814V17.4277Z" fill="white"/>
<path d="M5.70898 31.7148V33.1398H7.14336V34.5742H8.56836V33.1398H21.4215V34.5742H22.8559V33.1398H24.2809V31.7148H5.70898Z" fill="white"/>
<path d="M22.8563 23.1377H21.4219V25.997H22.8563V23.1377Z" fill="white"/>
<path d="M22.8563 16.0029H21.4219V17.4279H22.8563V16.0029Z" fill="white"/>
<path d="M21.4223 21.7119H18.5723V23.1369H21.4223V21.7119Z" fill="white"/>
<path d="M21.4215 34.5752H8.56836V36.0002H21.4215V34.5752Z" fill="white"/>
<path d="M21.4223 25.9961H18.5723V27.4304H21.4223V25.9961Z" fill="white"/>
<path d="M18.5721 23.1377H17.1377V25.997H18.5721V23.1377Z" fill="white"/>
<path d="M18.5721 7.4248H17.1377V8.85915H18.5721V7.4248Z" fill="white"/>
<path d="M17.1379 28.8555H12.8535V30.2804H17.1379V28.8555Z" fill="white"/>
<path d="M17.1379 6H12.8535V7.42497H17.1379V6Z" fill="white"/>
<path d="M12.8527 23.1377H11.4277V25.997H12.8527V23.1377Z" fill="white"/>
<path d="M12.8527 7.4248H11.4277V8.85915H12.8527V7.4248Z" fill="white"/>
<path d="M11.4277 21.7119H8.56836V23.1369H11.4277V21.7119Z" fill="white"/>
<path d="M21.4215 16.003V14.5686H15.7121V10.2843H17.1371V8.85938H12.8527V10.2843H14.2777V14.5686H8.56836V16.003H21.4215Z" fill="white"/>
<path d="M11.4277 25.9961H8.56836V27.4304H11.4277V25.9961Z" fill="white"/>
<path d="M8.56856 23.1377H7.14355V25.997H8.56856V23.1377Z" fill="white"/>
<path d="M8.56856 16.0029H7.14355V17.4279H8.56856V16.0029Z" fill="white"/>
<path d="M7.14336 17.4277H5.70898V20.287H7.14336V17.4277Z" fill="white"/>
<path d="M5.70938 20.2872H4.28438V21.7121H2.85V13.1436H1.425V23.1371H0V28.8557H1.425V30.2807H4.28438V31.715H5.70938V20.2872Z" fill="white"/>
<path d="M40.392 46.18C39.532 46.18 38.802 45.99 38.202 45.61C37.602 45.23 37.144 44.702 36.828 44.026C36.516 43.35 36.36 42.568 36.36 41.68C36.36 40.792 36.516 40.01 36.828 39.334C37.144 38.658 37.602 38.13 38.202 37.75C38.802 37.37 39.532 37.18 40.392 37.18C41.392 37.18 42.214 37.434 42.858 37.942C43.506 38.45 43.952 39.134 44.196 39.994L43.11 40.282C42.934 39.638 42.62 39.13 42.168 38.758C41.716 38.386 41.124 38.2 40.392 38.2C39.748 38.2 39.212 38.346 38.784 38.638C38.356 38.93 38.034 39.338 37.818 39.862C37.602 40.382 37.492 40.988 37.488 41.68C37.484 42.368 37.59 42.974 37.806 43.498C38.022 44.018 38.346 44.426 38.778 44.722C39.21 45.014 39.748 45.16 40.392 45.16C41.124 45.16 41.716 44.974 42.168 44.602C42.62 44.226 42.934 43.718 43.11 43.078L44.196 43.366C43.952 44.222 43.506 44.906 42.858 45.418C42.214 45.926 41.392 46.18 40.392 46.18ZM50.1259 46V42.754C50.1259 42.446 50.0979 42.15 50.0419 41.866C49.9899 41.582 49.8959 41.328 49.7599 41.104C49.6279 40.876 49.4479 40.696 49.2199 40.564C48.9959 40.432 48.7119 40.366 48.3679 40.366C48.0999 40.366 47.8559 40.412 47.6359 40.504C47.4199 40.592 47.2339 40.728 47.0779 40.912C46.9219 41.096 46.7999 41.328 46.7119 41.608C46.6279 41.884 46.5859 42.21 46.5859 42.586L45.8839 42.37C45.8839 41.742 45.9959 41.204 46.2199 40.756C46.4479 40.304 46.7659 39.958 47.1739 39.718C47.5859 39.474 48.0699 39.352 48.6259 39.352C49.0459 39.352 49.4039 39.418 49.6999 39.55C49.9959 39.682 50.2419 39.858 50.4379 40.078C50.6339 40.294 50.7879 40.538 50.8999 40.81C51.0119 41.078 51.0899 41.352 51.1339 41.632C51.1819 41.908 51.2059 42.17 51.2059 42.418V46H50.1259ZM45.5059 46V37.36H46.4659V42.13H46.5859V46H45.5059ZM54.6078 46.18C54.1238 46.18 53.7178 46.092 53.3898 45.916C53.0658 45.736 52.8198 45.5 52.6518 45.208C52.4878 44.916 52.4058 44.596 52.4058 44.248C52.4058 43.908 52.4698 43.614 52.5978 43.366C52.7298 43.114 52.9138 42.906 53.1498 42.742C53.3858 42.574 53.6678 42.442 53.9958 42.346C54.3038 42.262 54.6478 42.19 55.0278 42.13C55.4118 42.066 55.7998 42.008 56.1918 41.956C56.5838 41.904 56.9498 41.854 57.2898 41.806L56.9058 42.028C56.9178 41.452 56.8018 41.026 56.5578 40.75C56.3178 40.474 55.9018 40.336 55.3098 40.336C54.9178 40.336 54.5738 40.426 54.2778 40.606C53.9858 40.782 53.7798 41.07 53.6598 41.47L52.6458 41.164C52.8018 40.596 53.1038 40.15 53.5518 39.826C53.9998 39.502 54.5898 39.34 55.3218 39.34C55.9098 39.34 56.4138 39.446 56.8338 39.658C57.2578 39.866 57.5618 40.182 57.7458 40.606C57.8378 40.806 57.8958 41.024 57.9198 41.26C57.9438 41.492 57.9558 41.736 57.9558 41.992V46H57.0078V44.446L57.2298 44.59C56.9858 45.114 56.6438 45.51 56.2038 45.778C55.7678 46.046 55.2358 46.18 54.6078 46.18ZM54.7698 45.286C55.1538 45.286 55.4858 45.218 55.7658 45.082C56.0498 44.942 56.2778 44.76 56.4498 44.536C56.6218 44.308 56.7338 44.06 56.7858 43.792C56.8458 43.592 56.8778 43.37 56.8818 43.126C56.8898 42.878 56.8938 42.688 56.8938 42.556L57.2658 42.718C56.9178 42.766 56.5758 42.812 56.2398 42.856C55.9038 42.9 55.5858 42.948 55.2858 43C54.9858 43.048 54.7158 43.106 54.4758 43.174C54.2998 43.23 54.1338 43.302 53.9778 43.39C53.8258 43.478 53.7018 43.592 53.6058 43.732C53.5138 43.868 53.4678 44.038 53.4678 44.242C53.4678 44.418 53.5118 44.586 53.5998 44.746C53.6918 44.906 53.8318 45.036 54.0198 45.136C54.2118 45.236 54.4618 45.286 54.7698 45.286ZM63.1338 46C62.7498 46.076 62.3698 46.106 61.9938 46.09C61.6218 46.078 61.2898 46.004 60.9978 45.868C60.7058 45.728 60.4838 45.512 60.3318 45.22C60.2038 44.964 60.1338 44.706 60.1218 44.446C60.1138 44.182 60.1098 43.884 60.1098 43.552V37.72H61.1778V43.504C61.1778 43.768 61.1798 43.994 61.1838 44.182C61.1918 44.37 61.2338 44.532 61.3098 44.668C61.4538 44.924 61.6818 45.074 61.9938 45.118C62.3098 45.162 62.6898 45.15 63.1338 45.082V46ZM58.7958 40.402V39.52H63.1338V40.402H58.7958ZM64.3294 47.344L64.3954 46.846C64.5634 46.858 64.6894 46.826 64.7734 46.75C64.8574 46.674 64.9114 46.57 64.9354 46.438C64.9594 46.306 64.9634 46.16 64.9474 46H64.3294V44.644H65.5054V46.18C65.5054 46.6 65.4014 46.916 65.1934 47.128C64.9894 47.34 64.7014 47.412 64.3294 47.344ZM70.1916 46V39.52H71.1456V41.086L70.9896 40.882C71.0656 40.682 71.1636 40.498 71.2836 40.33C71.4076 40.162 71.5456 40.024 71.6976 39.916C71.8656 39.78 72.0556 39.676 72.2676 39.604C72.4796 39.532 72.6956 39.49 72.9156 39.478C73.1356 39.462 73.3416 39.476 73.5336 39.52V40.522C73.3096 40.462 73.0636 40.446 72.7956 40.474C72.5276 40.502 72.2796 40.6 72.0516 40.768C71.8436 40.916 71.6816 41.096 71.5656 41.308C71.4536 41.52 71.3756 41.75 71.3316 41.998C71.2876 42.242 71.2656 42.492 71.2656 42.748V46H70.1916ZM77.3589 46.18C76.7229 46.18 76.1669 46.04 75.6909 45.76C75.2189 45.476 74.8509 45.082 74.5869 44.578C74.3229 44.07 74.1909 43.478 74.1909 42.802C74.1909 42.094 74.3209 41.482 74.5809 40.966C74.8409 40.446 75.2029 40.046 75.6669 39.766C76.1349 39.482 76.6829 39.34 77.3109 39.34C77.9629 39.34 78.5169 39.49 78.9729 39.79C79.4329 40.09 79.7769 40.518 80.0049 41.074C80.2369 41.63 80.3369 42.292 80.3049 43.06H79.2249V42.676C79.2129 41.88 79.0509 41.286 78.7389 40.894C78.4269 40.498 77.9629 40.3 77.3469 40.3C76.6869 40.3 76.1849 40.512 75.8409 40.936C75.4969 41.36 75.3249 41.968 75.3249 42.76C75.3249 43.524 75.4969 44.116 75.8409 44.536C76.1849 44.956 76.6749 45.166 77.3109 45.166C77.7389 45.166 78.1109 45.068 78.4269 44.872C78.7429 44.676 78.9909 44.394 79.1709 44.026L80.1969 44.38C79.9449 44.952 79.5649 45.396 79.0569 45.712C78.5529 46.024 77.9869 46.18 77.3589 46.18ZM74.9649 43.06V42.202H79.7529V43.06H74.9649ZM81.7608 38.374V37.27H82.8288V38.374H81.7608ZM81.7608 46V39.52H82.8288V46H81.7608ZM92.3751 46L92.3811 41.854C92.3811 41.37 92.2511 40.992 91.9911 40.72C91.7351 40.444 91.4011 40.306 90.9891 40.306C90.7491 40.306 90.5211 40.362 90.3051 40.474C90.0891 40.582 89.9131 40.754 89.7771 40.99C89.6411 41.222 89.5731 41.52 89.5731 41.884L89.0091 41.656C89.0011 41.196 89.0951 40.794 89.2911 40.45C89.4911 40.102 89.7631 39.832 90.1071 39.64C90.4511 39.448 90.8391 39.352 91.2711 39.352C91.9471 39.352 92.4791 39.558 92.8671 39.97C93.2551 40.378 93.4491 40.928 93.4491 41.62L93.4431 46H92.3751ZM84.6231 46V39.52H85.5771V41.254H85.6971V46H84.6231ZM88.5051 46L88.5111 41.896C88.5111 41.4 88.3831 41.012 88.1271 40.732C87.8711 40.448 87.5311 40.306 87.1071 40.306C86.6871 40.306 86.3471 40.45 86.0871 40.738C85.8271 41.026 85.6971 41.408 85.6971 41.884L85.1331 41.548C85.1331 41.128 85.2331 40.752 85.4331 40.42C85.6331 40.088 85.9051 39.828 86.2491 39.64C86.5931 39.448 86.9831 39.352 87.4191 39.352C87.8551 39.352 88.2351 39.444 88.5591 39.628C88.8831 39.812 89.1331 40.076 89.3091 40.42C89.4851 40.76 89.5731 41.166 89.5731 41.638L89.5671 46H88.5051ZM96.8539 46.18C96.3699 46.18 95.9639 46.092 95.6359 45.916C95.3119 45.736 95.0659 45.5 94.8979 45.208C94.7339 44.916 94.6519 44.596 94.6519 44.248C94.6519 43.908 94.7159 43.614 94.8439 43.366C94.9759 43.114 95.1599 42.906 95.3959 42.742C95.6319 42.574 95.9139 42.442 96.2419 42.346C96.5499 42.262 96.8939 42.19 97.2739 42.13C97.6579 42.066 98.0459 42.008 98.4379 41.956C98.8299 41.904 99.1959 41.854 99.5359 41.806L99.1519 42.028C99.1639 41.452 99.0479 41.026 98.8039 40.75C98.5639 40.474 98.1479 40.336 97.5559 40.336C97.1639 40.336 96.8199 40.426 96.5239 40.606C96.2319 40.782 96.0259 41.07 95.9059 41.47L94.8919 41.164C95.0479 40.596 95.3499 40.15 95.7979 39.826C96.2459 39.502 96.8359 39.34 97.5679 39.34C98.1559 39.34 98.6599 39.446 99.0799 39.658C99.5039 39.866 99.8079 40.182 99.9919 40.606C100.084 40.806 100.142 41.024 100.166 41.26C100.19 41.492 100.202 41.736 100.202 41.992V46H99.2539V44.446L99.4759 44.59C99.2319 45.114 98.8899 45.51 98.4499 45.778C98.0139 46.046 97.4819 46.18 96.8539 46.18ZM97.0159 45.286C97.3999 45.286 97.7319 45.218 98.0119 45.082C98.2959 44.942 98.5239 44.76 98.6959 44.536C98.8679 44.308 98.9799 44.06 99.0319 43.792C99.0919 43.592 99.1239 43.37 99.1279 43.126C99.1359 42.878 99.1399 42.688 99.1399 42.556L99.5119 42.718C99.1639 42.766 98.8219 42.812 98.4859 42.856C98.1499 42.9 97.8319 42.948 97.5319 43C97.2319 43.048 96.9619 43.106 96.7219 43.174C96.5459 43.23 96.3799 43.302 96.2239 43.39C96.0719 43.478 95.9479 43.592 95.8519 43.732C95.7599 43.868 95.7139 44.038 95.7139 44.242C95.7139 44.418 95.7579 44.586 95.8459 44.746C95.9379 44.906 96.0779 45.036 96.2659 45.136C96.4579 45.236 96.7079 45.286 97.0159 45.286ZM104.384 49.06C104.044 49.06 103.712 49.008 103.388 48.904C103.064 48.8 102.766 48.642 102.494 48.43C102.226 48.222 102.002 47.958 101.822 47.638L102.8 47.122C102.96 47.438 103.186 47.668 103.478 47.812C103.774 47.956 104.078 48.028 104.39 48.028C104.802 48.028 105.144 47.952 105.416 47.8C105.688 47.652 105.888 47.43 106.016 47.134C106.148 46.838 106.212 46.47 106.208 46.03V44.26H106.334V39.52H107.282V46.042C107.282 46.218 107.276 46.388 107.264 46.552C107.256 46.716 107.236 46.878 107.204 47.038C107.12 47.498 106.954 47.876 106.706 48.172C106.458 48.472 106.138 48.694 105.746 48.838C105.354 48.986 104.9 49.06 104.384 49.06ZM104.306 46.18C103.702 46.18 103.184 46.03 102.752 45.73C102.32 45.426 101.986 45.016 101.75 44.5C101.518 43.984 101.402 43.402 101.402 42.754C101.402 42.106 101.518 41.524 101.75 41.008C101.986 40.492 102.32 40.086 102.752 39.79C103.184 39.49 103.7 39.34 104.3 39.34C104.912 39.34 105.426 39.488 105.842 39.784C106.258 40.08 106.572 40.486 106.784 41.002C107 41.518 107.108 42.102 107.108 42.754C107.108 43.398 107 43.98 106.784 44.5C106.572 45.016 106.258 45.426 105.842 45.73C105.426 46.03 104.914 46.18 104.306 46.18ZM104.438 45.202C104.874 45.202 105.232 45.098 105.512 44.89C105.792 44.678 105.998 44.388 106.13 44.02C106.266 43.648 106.334 43.226 106.334 42.754C106.334 42.274 106.266 41.852 106.13 41.488C105.998 41.12 105.794 40.834 105.518 40.63C105.242 40.422 104.892 40.318 104.468 40.318C104.028 40.318 103.664 40.426 103.376 40.642C103.092 40.858 102.88 41.15 102.74 41.518C102.604 41.886 102.536 42.298 102.536 42.754C102.536 43.214 102.606 43.63 102.746 44.002C102.886 44.37 103.096 44.662 103.376 44.878C103.66 45.094 104.014 45.202 104.438 45.202ZM109.077 38.374V37.27H110.145V38.374H109.077ZM109.077 46V39.52H110.145V46H109.077ZM116.559 46V42.754C116.559 42.446 116.531 42.15 116.475 41.866C116.423 41.582 116.329 41.328 116.193 41.104C116.061 40.876 115.881 40.696 115.653 40.564C115.429 40.432 115.145 40.366 114.801 40.366C114.533 40.366 114.289 40.412 114.069 40.504C113.853 40.592 113.667 40.728 113.511 40.912C113.355 41.096 113.233 41.328 113.145 41.608C113.061 41.884 113.019 42.21 113.019 42.586L112.317 42.37C112.317 41.742 112.429 41.204 112.653 40.756C112.881 40.304 113.199 39.958 113.607 39.718C114.019 39.474 114.503 39.352 115.059 39.352C115.479 39.352 115.837 39.418 116.133 39.55C116.429 39.682 116.675 39.858 116.871 40.078C117.067 40.294 117.221 40.538 117.333 40.81C117.445 41.078 117.523 41.352 117.567 41.632C117.615 41.908 117.639 42.17 117.639 42.418V46H116.559ZM111.939 46V39.52H112.899V41.254H113.019V46H111.939ZM121.949 46.18C121.313 46.18 120.757 46.04 120.281 45.76C119.809 45.476 119.441 45.082 119.177 44.578C118.913 44.07 118.781 43.478 118.781 42.802C118.781 42.094 118.911 41.482 119.171 40.966C119.431 40.446 119.793 40.046 120.257 39.766C120.725 39.482 121.273 39.34 121.901 39.34C122.553 39.34 123.107 39.49 123.563 39.79C124.023 40.09 124.367 40.518 124.595 41.074C124.827 41.63 124.927 42.292 124.895 43.06H123.815V42.676C123.803 41.88 123.641 41.286 123.329 40.894C123.017 40.498 122.553 40.3 121.937 40.3C121.277 40.3 120.775 40.512 120.431 40.936C120.087 41.36 119.915 41.968 119.915 42.76C119.915 43.524 120.087 44.116 120.431 44.536C120.775 44.956 121.265 45.166 121.901 45.166C122.329 45.166 122.701 45.068 123.017 44.872C123.333 44.676 123.581 44.394 123.761 44.026L124.787 44.38C124.535 44.952 124.155 45.396 123.647 45.712C123.143 46.024 122.577 46.18 121.949 46.18ZM119.555 43.06V42.202H124.343V43.06H119.555ZM128.775 46.18C128.171 46.18 127.653 46.03 127.221 45.73C126.789 45.426 126.455 45.016 126.219 44.5C125.987 43.984 125.871 43.402 125.871 42.754C125.871 42.106 125.987 41.524 126.219 41.008C126.455 40.492 126.789 40.086 127.221 39.79C127.653 39.49 128.169 39.34 128.769 39.34C129.381 39.34 129.895 39.488 130.311 39.784C130.727 40.08 131.041 40.486 131.253 41.002C131.469 41.518 131.577 42.102 131.577 42.754C131.577 43.398 131.469 43.98 131.253 44.5C131.041 45.016 130.727 45.426 130.311 45.73C129.895 46.03 129.383 46.18 128.775 46.18ZM128.907 45.202C129.343 45.202 129.701 45.098 129.981 44.89C130.261 44.678 130.467 44.388 130.599 44.02C130.735 43.648 130.803 43.226 130.803 42.754C130.803 42.274 130.735 41.852 130.599 41.488C130.467 41.12 130.263 40.834 129.987 40.63C129.711 40.422 129.361 40.318 128.937 40.318C128.497 40.318 128.133 40.426 127.845 40.642C127.561 40.858 127.349 41.15 127.209 41.518C127.073 41.886 127.005 42.298 127.005 42.754C127.005 43.214 127.075 43.63 127.215 44.002C127.355 44.37 127.565 44.662 127.845 44.878C128.129 45.094 128.483 45.202 128.907 45.202ZM130.803 46V41.23H130.683V37.36H131.757V46H130.803Z" fill="#797986"/>
<path d="M37.82 28V9.28H45.178C46.3653 9.28 47.362 9.52267 48.168 10.008C48.974 10.4933 49.5807 11.1217 49.988 11.893C50.3953 12.6557 50.599 13.4617 50.599 14.311C50.599 15.3423 50.3433 16.2263 49.832 16.963C49.3293 17.6997 48.649 18.2023 47.791 18.471L47.765 17.834C48.961 18.1287 49.8797 18.705 50.521 19.563C51.1623 20.4123 51.483 21.4047 51.483 22.54C51.483 23.6407 51.262 24.5983 50.82 25.413C50.3867 26.2277 49.7497 26.8647 48.909 27.324C48.077 27.7747 47.0673 28 45.88 28H37.82ZM40.576 25.413H45.464C46.0793 25.413 46.6297 25.296 47.115 25.062C47.609 24.828 47.9947 24.4943 48.272 24.061C48.558 23.619 48.701 23.0947 48.701 22.488C48.701 21.9247 48.5753 21.4177 48.324 20.967C48.0813 20.5077 47.726 20.148 47.258 19.888C46.7987 19.6193 46.257 19.485 45.633 19.485H40.576V25.413ZM40.576 16.924H45.139C45.6417 16.924 46.0923 16.8243 46.491 16.625C46.8983 16.417 47.219 16.1223 47.453 15.741C47.6957 15.351 47.817 14.883 47.817 14.337C47.817 13.609 47.5743 13.011 47.089 12.543C46.6037 12.075 45.9537 11.841 45.139 11.841H40.576V16.924ZM60.297 28.39C58.9017 28.39 57.6753 28.0867 56.618 27.48C55.5693 26.8647 54.7503 26.011 54.161 24.919C53.5803 23.8183 53.29 22.5443 53.29 21.097C53.29 19.563 53.576 18.2327 54.148 17.106C54.7287 15.9793 55.5347 15.1083 56.566 14.493C57.5973 13.8777 58.7977 13.57 60.167 13.57C61.597 13.57 62.8147 13.9037 63.82 14.571C64.8253 15.2297 65.575 16.17 66.069 17.392C66.5717 18.614 66.771 20.0657 66.667 21.747H63.95V20.759C63.9327 19.1297 63.6207 17.925 63.014 17.145C62.416 16.365 61.5017 15.975 60.271 15.975C58.9103 15.975 57.8877 16.404 57.203 17.262C56.5183 18.12 56.176 19.3593 56.176 20.98C56.176 22.5227 56.5183 23.7187 57.203 24.568C57.8877 25.4087 58.8757 25.829 60.167 25.829C61.0163 25.829 61.7487 25.6383 62.364 25.257C62.988 24.867 63.4733 24.3123 63.82 23.593L66.485 24.438C65.939 25.6947 65.1113 26.6697 64.002 27.363C62.8927 28.0477 61.6577 28.39 60.297 28.39ZM55.292 21.747V19.628H65.315V21.747H55.292ZM75.8107 28.39C74.4153 28.39 73.189 28.0867 72.1317 27.48C71.083 26.8647 70.264 26.011 69.6747 24.919C69.094 23.8183 68.8037 22.5443 68.8037 21.097C68.8037 19.563 69.0897 18.2327 69.6617 17.106C70.2423 15.9793 71.0483 15.1083 72.0797 14.493C73.111 13.8777 74.3113 13.57 75.6807 13.57C77.1107 13.57 78.3283 13.9037 79.3337 14.571C80.339 15.2297 81.0887 16.17 81.5827 17.392C82.0853 18.614 82.2847 20.0657 82.1807 21.747H79.4637V20.759C79.4463 19.1297 79.1343 17.925 78.5277 17.145C77.9297 16.365 77.0153 15.975 75.7847 15.975C74.424 15.975 73.4013 16.404 72.7167 17.262C72.032 18.12 71.6897 19.3593 71.6897 20.98C71.6897 22.5227 72.032 23.7187 72.7167 24.568C73.4013 25.4087 74.3893 25.829 75.6807 25.829C76.53 25.829 77.2623 25.6383 77.8777 25.257C78.5017 24.867 78.987 24.3123 79.3337 23.593L81.9987 24.438C81.4527 25.6947 80.625 26.6697 79.5157 27.363C78.4063 28.0477 77.1713 28.39 75.8107 28.39ZM70.8057 21.747V19.628H80.8287V21.747H70.8057ZM91.3075 28.39C89.9642 28.39 88.8375 28.065 87.9275 27.415C87.0175 26.7563 86.3285 25.868 85.8605 24.75C85.3925 23.632 85.1585 22.371 85.1585 20.967C85.1585 19.563 85.3882 18.302 85.8475 17.184C86.3155 16.066 87.0002 15.1863 87.9015 14.545C88.8115 13.895 89.9295 13.57 91.2555 13.57C92.5728 13.57 93.7082 13.895 94.6615 14.545C95.6235 15.1863 96.3645 16.066 96.8845 17.184C97.4045 18.2933 97.6645 19.5543 97.6645 20.967C97.6645 22.371 97.4045 23.6363 96.8845 24.763C96.3732 25.881 95.6408 26.765 94.6875 27.415C93.7428 28.065 92.6162 28.39 91.3075 28.39ZM84.7035 34.24V13.96H87.1215V24.061H87.4335V34.24H84.7035ZM90.9305 25.933C91.7972 25.933 92.5122 25.712 93.0755 25.27C93.6475 24.828 94.0722 24.2343 94.3495 23.489C94.6355 22.735 94.7785 21.8943 94.7785 20.967C94.7785 20.0483 94.6355 19.2163 94.3495 18.471C94.0722 17.7257 93.6432 17.132 93.0625 16.69C92.4818 16.248 91.7408 16.027 90.8395 16.027C89.9902 16.027 89.2882 16.235 88.7335 16.651C88.1875 17.067 87.7802 17.6477 87.5115 18.393C87.2515 19.1383 87.1215 19.9963 87.1215 20.967C87.1215 21.9377 87.2515 22.7957 87.5115 23.541C87.7715 24.2863 88.1832 24.8713 88.7465 25.296C89.3098 25.7207 90.0378 25.933 90.9305 25.933Z" fill="white"/>
</svg>
